<?xml version="1.0" encoding="utf-8"?>
<!-- Generator: Adobe Illustrator 16.0.0, SVG Export Plug-In . SVG Version: 6.00 Build 0)  -->
<!DOCTYPE svg PUBLIC "-//W3C//DTD SVG 1.1//EN" "http://www.w3.org/Graphics/SVG/1.1/DTD/svg11.dtd">
<svg version="1.1" id="Layer_1" xmlns="http://www.w3.org/2000/svg" xmlns:xlink="http://www.w3.org/1999/xlink" x="0px" y="0px"
	 width="58px" height="62px" viewBox="0 0 58 62" enable-background="new 0 0 58 62" xml:space="preserve">
<circle opacity="0.3" fill="#337AB7" cx="30.259" cy="31.353" r="26.323"/>
<g>
	<defs>
		<circle id="SVGID_5_" cx="28.876" cy="31.164" r="27.458"/>
	</defs>
	<clipPath id="SVGID_2_">
		<use xlink:href="#SVGID_5_"  overflow="visible"/>
	</clipPath>
	<path clip-path="url(#SVGID_2_)" fill="#231F20" d="M17.58,45.103c3.304-1.156,6.587-4.341,6.587-4.341s-1.828,2.82-4.679,4.617
		c-1.273,0.803-3.839,0.5-4.361,1.456c-0.79,1.447,4.346,2.435,6.347,0.852c2.903-2.297,4.705-4.347,5.559-5.725
		c0,0-0.266,1.981-1.562,3.657c-0.779,1.008-2.342,1.592-3.289,2.448c-0.479,0.434,1.199,0.97,1.724,0.942
		c2.395-0.13,8.875-4.075,10.111-13.938c0.515-1.748,12.196-10.639,17.968-13.688c9.693-5.124,17.186-6.989,24.134-22.782
		c-3.302-6.042-14.401-8.895-20.237-12.515c-5.648,1.986-19.801,10.78-25.091,42.849c-0.426,2.581-8.659,3.513-8.659,3.513
		l-5.2-1.066c0,0-3.749,1.897,2.65,3.942c2.348,0.848-4.076,2.561-4.076,2.561s-3.812-5.246-3.856-3.394
		c-0.038,1.645,0.617,6.29,4.601,5.837c1.329-0.155,2.968-0.649,4.979-1.636c0,0-1.913,3.336-4.712,3.97
		c-1.945,0.44-4.955-1.826-5.52-1.651C9.507,41.471,13.128,46.662,17.58,45.103z"/>
</g>
<g>
	<polygon fill="#231F20" points="27.87,22.032 21.991,21.812 22.155,24.084 	"/>
	<polygon fill="#231F20" points="28.144,17.853 22.945,15.096 22.103,17.215 	"/>
	<polygon fill="#231F20" points="30.05,15.014 26.964,10.002 25.167,11.401 	"/>
	<polygon fill="#231F20" points="46.922,31.022 51.542,34.666 52.749,32.733 	"/>
	<polygon fill="#231F20" points="44.238,34.24 46.813,39.53 48.742,38.313 	"/>
	<polygon fill="#231F20" points="41.024,35.41 40.565,41.277 42.841,41.206 	"/>
</g>
</svg>
