<?xml version="1.0" encoding="utf-8"?>
<!-- Generator: Adobe Illustrator 16.0.0, SVG Export Plug-In . SVG Version: 6.00 Build 0)  -->
<!DOCTYPE svg PUBLIC "-//W3C//DTD SVG 1.1//EN" "http://www.w3.org/Graphics/SVG/1.1/DTD/svg11.dtd">
<svg version="1.1" id="Layer_1" xmlns="http://www.w3.org/2000/svg" xmlns:xlink="http://www.w3.org/1999/xlink" x="0px" y="0px"
	 width="58px" height="62px" viewBox="0 0 58 62" enable-background="new 0 0 58 62" xml:space="preserve">
<circle opacity="0.3" fill="#337AB7" cx="26.322" cy="31.352" r="26.322"/>
<path opacity="0.3" fill="#337AB7" d="M20.856,7.662c-0.092,0.016-0.181,0.051-0.266,0.101c0.29,0.013,0.579,0.029,0.866,0.051
	C21.307,7.677,21.109,7.619,20.856,7.662z"/>
<g>
	<defs>
		<circle id="SVGID_7_" cx="28.885" cy="28.657" r="28.656"/>
	</defs>
	<clipPath id="SVGID_2_">
		<use xlink:href="#SVGID_7_"  overflow="visible"/>
	</clipPath>
	<path clip-path="url(#SVGID_2_)" fill="#231F20" d="M31.848,22.954c1.992-3.184,4.41-6.021,3.933-7.264
		c-0.227-0.596-1.627-2.018-5.061,1.542c0,0,1.735-11.073,0.174-11.7c-2.271-0.915-2.6,5.597-3.525,8.747
		c0,0,0.103-4.864,0.374-8.66c0.091-1.265-0.031-2.309-0.495-2.751c-1.944-1.219-2.253,1.434-2.507,2.855
		c-0.701,3.901-0.743,8.829-0.743,8.829s-0.481-0.367-1.021-3.136c-0.188-0.969-0.676-5.313-1.301-5.661
		c-1.137-0.636-2.133,1.494-1.215,5.718c0.585,2.683,0.353,2.454,0.874,4.622c-0.625-0.56-0.812-0.87-1.583-2.281
		c-0.845-1.543-1.835-3.876-2.414-3.26c-1.787,1.908,2.076,9.015,2.076,9.015s-1.07,9.104,3.353,10.962
		c-0.601,1.514-4.892,41.814-1.63,50.618c0.956,0.082,2.434-4.967,3.409-4.967c5.024,0,13.115,0.676,17.424-1.366
		C41.953,57.96,37.305,57.981,29.656,30.34C31.135,29.359,31.851,26.535,31.848,22.954z"/>
</g>
</svg>
