<?xml version="1.0" encoding="utf-8"?>
<!-- Generator: Adobe Illustrator 16.0.0, SVG Export Plug-In . SVG Version: 6.00 Build 0)  -->
<!DOCTYPE svg PUBLIC "-//W3C//DTD SVG 1.1//EN" "http://www.w3.org/Graphics/SVG/1.1/DTD/svg11.dtd">
<svg version="1.1" id="Layer_1" xmlns="http://www.w3.org/2000/svg" xmlns:xlink="http://www.w3.org/1999/xlink" x="0px" y="0px"
	 width="58px" height="62px" viewBox="0 0 58 62" enable-background="new 0 0 58 62" xml:space="preserve">
<circle opacity="0.3" fill="#337AB7" cx="32.271" cy="31.352" r="26.322"/>
<g>
	<defs>
		<circle id="SVGID_3_" cx="29.168" cy="31.006" r="29.425"/>
	</defs>
	<clipPath id="SVGID_2_">
		<use xlink:href="#SVGID_3_"  overflow="visible"/>
	</clipPath>
	<g clip-path="url(#SVGID_2_)">
		<path d="M31.583,10.833c-3.159,3.528-7.503,9.31-7.333,10.667c0.169,1.355,2.64,3.31,2.64,3.31l3.956,0.391
			c0,0,5.38-2.147,9.863,2.091c-0.261-1.864,0.1-5.017,0.894-5.126c0.788-0.108,1.401,0.4,1.897,3.251
			C44.492,31.116,41.125,30,41.125,30l-4.074-0.444c0,0-0.763,7.689,1.074,10.569c3.676,0.679,10.363-0.655,11.501,0.107
			c1.14,0.762,4.274,9.66,4.274,14.235c0,0,3.896-1.865,4.236,0c0,0-1.765,0.614-2.881,1.524c-1.143,0.932-1.646,2.157-2.203,2.372
			c-0.385,0.149-0.235-1.255-1.355-3.05c-2.09-3.351-5.572-8.42-3.887-9.781c2.157-1.747-7.477,4.967-11.027,3.004
			c-3.533,6.963-10.76,10.971-10.76,10.971s2.542,3.94-9.182,11.396c-0.055,2.371,0.454,1.611-0.055,2.371
			c-0.508,0.766-1.899-0.372-3.602-0.549c-2.418-0.246-5.018,0.429-4.588-0.466c0.734-1.526,4.801-2.202,4.801-2.202
			s5.967-10.08,9.15-12.541c1.877-5.726,8.326-14.143,8.326-14.143S26.954,36.083,24.75,31c0.188-0.562-5-9.875-5-9.875
			s0.438-5.25,9.625-10.812c2.113-1.279,0.574-2.454,1.792-3.479c1.188-1,3.286,0.431,3.144,1.993
			C34.167,10.417,31.583,10.833,31.583,10.833z"/>
		<path d="M33.5,21.042c0.39,2.332-0.639,4.577-2.917,4.958c-2.279,0.38-4.352-1.565-4.74-3.896
			c-0.391-2.331,0.879-4.639,3.157-5.02C31.279,16.704,33.109,18.711,33.5,21.042z"/>
	</g>
	<path clip-path="url(#SVGID_2_)" d="M41.123,18.848c0.906,0.178,1.497,1.057,1.318,1.964c-0.179,0.908-0.346,2.241-1.253,2.062
		c-0.906-0.179-2.377-1.871-2.144-2.765C39.333,19,40.462,18.718,41.123,18.848z"/>
</g>
</svg>
